<?xml version="1.0" encoding="UTF-8" standalone="no"?>
<svg
   data-name="Layer 1"
   id="Layer_1"
   viewBox="0 0 24 24"
   version="1.1"
   sodipodi:docname="8725899_ear_icon.svg"
   inkscape:version="1.3.2 (091e20e, 2023-11-25, custom)"
   xmlns:inkscape="http://www.inkscape.org/namespaces/inkscape"
   xmlns:sodipodi="http://sodipodi.sourceforge.net/DTD/sodipodi-0.dtd"
   xmlns="http://www.w3.org/2000/svg"
   xmlns:svg="http://www.w3.org/2000/svg">
  <defs
     id="defs1" />
  <sodipodi:namedview
     id="namedview1"
     pagecolor="#ffffff"
     bordercolor="#000000"
     borderopacity="0.25"
     inkscape:showpageshadow="2"
     inkscape:pageopacity="0.0"
     inkscape:pagecheckerboard="0"
     inkscape:deskcolor="#d1d1d1"
     inkscape:zoom="10.166667"
     inkscape:cx="7.7704918"
     inkscape:cy="25.967213"
     inkscape:window-width="1448"
     inkscape:window-height="1034"
     inkscape:window-x="779"
     inkscape:window-y="107"
     inkscape:window-maximized="0"
     inkscape:current-layer="Layer_1" />
  <title
     id="title1" />
  <path
     d="M12,8a1.00067,1.00067,0,0,1,1,1,1,1,0,0,0,2,0,2.9995,2.9995,0,1,0-5.01758,2.2207c.01.0091.16113.16992.19336.21485a.9875.9875,0,0,1,0,1.11914.99952.99952,0,1,0,1.64844,1.13086,2.98332,2.98332,0,0,0-.00488-3.38867,7.12392,7.12392,0,0,0-.49122-.55665,1.05523,1.05523,0,0,1-.1582-.18164A1.00072,1.00072,0,0,1,12,8Zm0-6a7.0006,7.0006,0,0,0-6.76172,8.81152A.99989.99989,0,0,0,7.16992,10.294,5.00018,5.00018,0,1,1,17,9a5.11412,5.11412,0,0,1-.70508,2.56738L12.73145,19A2.00462,2.00462,0,0,1,11,20a2.027,2.027,0,0,1-2-2,1.99224,1.99224,0,0,1,.26855-.999,1.00065,1.00065,0,0,0-1.73242-1.002,3.9988,3.9988,0,1,0,6.96289,3.9336L18.0625,12.5A7.00044,7.00044,0,0,0,12,2Z"
     fill="#6563ff"
     id="path1"
     style="fill:#0b5ed7;fill-opacity:1" />
</svg>
